# xmcd
# 
# Track frame offsets:
#     150
#     23795
#     50479
#     78572
#     111568
# 
# Disc length: 1876
# 
# Revision: 2
# Processed by: cddbd v1.5.2PL0 Copyright (c) Steve Scherf et al.
# Submitted via: BonkEnc v1.0.6
# 
DISCID=3d075205
DTITLE=Ibrahim Maalouf - DIACHRONISM Disoriental
DYEAR=2009
DGENRE=Jazz
TTITLE0=POUH HIA
TTITLE1=NAGA (Feat. Adnan Jubran)
TTITLE2=YA HA LA
TTITLE3=Trumpet - Saz Improvisation (Feat. Bijan Chemirani)
TTITLE4=HYU MAN 
EXTD=YEAR: 2009
EXTT0=
EXTT1=
EXTT2=
EXTT3=
EXTT4=
PLAYORDER=
